<svg xmlns="http://www.w3.org/2000/svg" xmlns:svg="http://www.w3.org/2000/svg" id="svg6107" width="804" height="204.118" version="1.1" viewBox="0 0 212.725 54.006"><defs id="defs6101"><clipPath id="_clip1"><rect id="rect4" width="804" height="204.118" x="0" y="-.001"/></clipPath><linearGradient id="_Linear2" x1="0" x2="1" y1="0" y2="0" gradientTransform="matrix(-70.1494,387.159,-387.159,-70.1494,-130642,-23458.8)" gradientUnits="userSpaceOnUse"><stop style="stop-color:red;stop-opacity:1" id="stop1421" offset="0"/><stop style="stop-color:#900;stop-opacity:1" id="stop1423" offset="1"/></linearGradient><linearGradient id="_Linear3" x1="0" x2="1" y1="0" y2="0" gradientTransform="matrix(163.535,-313.319,313.319,163.535,106277,55928.2)" gradientUnits="userSpaceOnUse"><stop style="stop-color:red;stop-opacity:1" id="stop1426" offset="0"/><stop style="stop-color:#900;stop-opacity:1" id="stop1428" offset="1"/></linearGradient><linearGradient id="_Linear4" x1="0" x2="1" y1="0" y2="0" gradientTransform="matrix(-196.382,337.595,-337.595,-196.382,98241.5,57154.7)" gradientUnits="userSpaceOnUse"><stop style="stop-color:#900;stop-opacity:.65" id="stop1431" offset="0"/><stop style="stop-color:#fe0000;stop-opacity:.65" id="stop1433" offset="1"/></linearGradient><linearGradient id="_Linear5" x1="0" x2="1" y1="0" y2="0" gradientTransform="matrix(-70.1494,387.159,-387.159,-70.1494,-111810,-20046.5)" gradientUnits="userSpaceOnUse"><stop style="stop-color:red;stop-opacity:.65" id="stop1436" offset="0"/><stop style="stop-color:#900;stop-opacity:.65" id="stop1438" offset="1"/></linearGradient></defs><metadata id="metadata6104"/><g id="layer1" transform="translate(1.2851214,0.63406363)"><g style="clip-rule:evenodd;fill-rule:evenodd;stroke-linejoin:round;stroke-miterlimit:2" id="Opacity--Gradient" transform="matrix(0.26458333,0,0,0.26458333,-1.2851214,-0.63379905)"><rect style="fill:none" id="rect2" width="804" height="204.118" x="0" y="-.001"/><clipPath id="clipPath6084"><rect id="rect6082" width="804" height="204.118" x="0" y="-.001"/></clipPath><g id="g33" clip-path="url(#_clip1)"><g id="g31"><g id="g9" transform="matrix(1.37265,0,0,1.37265,-8.7283,-316.187)"><path style="fill:#3d3d3d;fill-rule:nonzero" id="path7" d="m 378.29,254.775 v 24.662 c 0,5.22 -0.18,9.841 -0.48,13.981 5.041,-6.841 12.421,-10.321 22.082,-10.321 9.361,0 16.681,3.24 21.842,9.661 5.22,6.42 7.801,15.421 7.801,27.002 0,11.641 -2.641,20.702 -7.861,27.243 -5.221,6.48 -12.541,9.72 -21.782,9.72 -4.62,0 -8.881,-0.84 -12.721,-2.52 h -0.06 c -3.72,-1.74 -6.901,-4.38 -9.481,-7.8 h -0.18 l -2.28,9.06 h -8.401 V 254.775 Z m -203.898,6 14.881,58.266 c 1.8,7.14 3.121,13.621 4.081,19.561 1.14,-6.96 2.64,-13.801 4.68,-20.462 l 16.862,-57.365 h 12.241 l 17.761,57.845 c 1.8,6.001 3.36,12.722 4.681,20.102 0.9,-5.64 2.22,-12.121 4.2,-19.802 l 14.881,-58.145 h 12.481 l -25.262,94.329 -0.06,0.36 h -11.461 l -19.022,-63.126 c -0.9,-2.76 -1.92,-6.3 -3,-10.501 -0.54,-2.16 -1.02,-3.84 -1.26,-5.1 l -0.06,-0.24 c -0.96,5.04 -2.22,10.381 -4.02,16.261 l -18.422,62.706 h -11.461 l -25.202,-94.689 z m 276.984,0 22.982,36.724 23.222,-36.724 h 12.721 l -29.342,44.824 31.142,49.145 0.42,0.72 H 499.08 L 474.118,314.6 448.736,355.464 h -12.601 l 31.443,-49.445 -29.343,-45.244 z m 99.549,0 c 11.581,0 20.162,2.22 25.742,6.721 5.641,4.5 8.461,11.281 8.461,20.222 0,12.361 -6.361,20.882 -18.662,25.382 l 25.622,42.364 H 578.107 L 555.425,316.46 h -18.841 v 39.004 h -11.821 v -94.689 z m -14.341,45.424 h 14.461 c 7.621,0 13.141,-1.5 16.621,-4.44 3.481,-3 5.221,-7.441 5.221,-13.441 0,-6.121 -1.74,-10.381 -5.281,-13.022 -3.54,-2.64 -9.3,-4.02 -17.341,-4.02 H 536.584 Z M 341.747,291.858 c 5.22,5.88 7.8,13.621 7.8,23.162 v 7.201 h -48.304 c 0.24,7.92 2.28,13.921 6.001,18.001 3.9,4.201 9.361,6.301 16.441,6.301 7.501,0 14.881,-1.56 22.262,-4.741 l 0.6,-0.24 v 10.441 l -0.24,0.12 c -3.78,1.68 -7.38,2.82 -10.801,3.54 -3.42,0.721 -7.44,1.081 -12.241,1.081 -10.441,0 -18.782,-3.241 -24.902,-9.661 -6.121,-6.421 -9.121,-15.302 -9.121,-26.643 0,-11.401 2.82,-20.521 8.461,-27.302 5.64,-6.721 13.321,-10.141 22.802,-10.141 8.941,0 16.021,2.94 21.242,8.881 z m -34.563,6.3 c -3.121,3.481 -5.041,8.341 -5.701,14.522 h 35.763 c -0.12,-6.421 -1.56,-11.281 -4.38,-14.642 -2.88,-3.48 -7.021,-5.22 -12.481,-5.22 -5.521,0 -9.901,1.74 -13.201,5.34 z m 75.846,0.9 c -3.12,3.961 -4.74,10.921 -4.74,20.702 0,9.841 1.68,16.802 4.86,20.942 3.181,4.141 8.281,6.181 15.482,6.181 6.42,0 11.101,-2.281 14.221,-6.901 3.12,-4.68 4.741,-11.461 4.741,-20.342 0,-9.061 -1.621,-15.781 -4.741,-20.162 -3.12,-4.38 -7.921,-6.54 -14.521,-6.54 -7.141,0 -12.241,2.04 -15.302,6.12"/></g><g id="g13" transform="matrix(1.37265,0,0,1.37265,-8.7283,-316.187)"><path style="fill:#3d3d3d;fill-rule:nonzero" id="path11" d="m 378.29,254.775 v 24.662 c 0,5.22 -0.18,9.841 -0.48,13.981 5.041,-6.841 12.421,-10.321 22.082,-10.321 9.361,0 16.681,3.24 21.842,9.661 5.22,6.42 7.801,15.421 7.801,27.002 0,11.641 -2.641,20.702 -7.861,27.243 -5.221,6.48 -12.541,9.72 -21.782,9.72 -4.62,0 -8.881,-0.84 -12.721,-2.52 h -0.06 c -3.72,-1.74 -6.901,-4.38 -9.481,-7.8 h -0.18 l -2.28,9.06 h -8.401 V 254.775 Z m -203.898,6 14.881,58.266 c 1.8,7.14 3.121,13.621 4.081,19.561 1.14,-6.96 2.64,-13.801 4.68,-20.462 l 16.862,-57.365 h 12.241 l 17.761,57.845 c 1.8,6.001 3.36,12.722 4.681,20.102 0.9,-5.64 2.22,-12.121 4.2,-19.802 l 14.881,-58.145 h 12.481 l -25.262,94.329 -0.06,0.36 h -11.461 l -19.022,-63.126 c -0.9,-2.76 -1.92,-6.3 -3,-10.501 -0.54,-2.16 -1.02,-3.84 -1.26,-5.1 l -0.06,-0.24 c -0.96,5.04 -2.22,10.381 -4.02,16.261 l -18.422,62.706 h -11.461 l -25.202,-94.689 z m 276.984,0 22.982,36.724 23.222,-36.724 h 12.721 l -29.342,44.824 31.142,49.145 0.42,0.72 H 499.08 L 474.118,314.6 448.736,355.464 h -12.601 l 31.443,-49.445 -29.343,-45.244 z m 99.549,0 c 11.581,0 20.162,2.22 25.742,6.721 5.641,4.5 8.461,11.281 8.461,20.222 0,12.361 -6.361,20.882 -18.662,25.382 l 25.622,42.364 H 578.107 L 555.425,316.46 h -18.841 v 39.004 h -11.821 v -94.689 z m -14.341,45.424 h 14.461 c 7.621,0 13.141,-1.5 16.621,-4.44 3.481,-3 5.221,-7.441 5.221,-13.441 0,-6.121 -1.74,-10.381 -5.281,-13.022 -3.54,-2.64 -9.3,-4.02 -17.341,-4.02 H 536.584 Z M 341.747,291.858 c 5.22,5.88 7.8,13.621 7.8,23.162 v 7.201 h -48.304 c 0.24,7.92 2.28,13.921 6.001,18.001 3.9,4.201 9.361,6.301 16.441,6.301 7.501,0 14.881,-1.56 22.262,-4.741 l 0.6,-0.24 v 10.441 l -0.24,0.12 c -3.78,1.68 -7.38,2.82 -10.801,3.54 -3.42,0.721 -7.44,1.081 -12.241,1.081 -10.441,0 -18.782,-3.241 -24.902,-9.661 -6.121,-6.421 -9.121,-15.302 -9.121,-26.643 0,-11.401 2.82,-20.521 8.461,-27.302 5.64,-6.721 13.321,-10.141 22.802,-10.141 8.941,0 16.021,2.94 21.242,8.881 z m -34.563,6.3 c -3.121,3.481 -5.041,8.341 -5.701,14.522 h 35.763 c -0.12,-6.421 -1.56,-11.281 -4.38,-14.642 -2.88,-3.48 -7.021,-5.22 -12.481,-5.22 -5.521,0 -9.901,1.74 -13.201,5.34 z m 75.846,0.9 c -3.12,3.961 -4.74,10.921 -4.74,20.702 0,9.841 1.68,16.802 4.86,20.942 3.181,4.141 8.281,6.181 15.482,6.181 6.42,0 11.101,-2.281 14.221,-6.901 3.12,-4.68 4.741,-11.461 4.741,-20.342 0,-9.061 -1.621,-15.781 -4.741,-20.162 -3.12,-4.38 -7.921,-6.54 -14.521,-6.54 -7.141,0 -12.241,2.04 -15.302,6.12"/></g><g id="g17" transform="matrix(0.65147,0,0,0.65147,-128.427,-187.711)"><path style="fill:url(#_Linear2)" id="path15" d="m 259.879,588.352 c -4.857,-11.581 -61.068,-146.689 -61.068,-146.689 0,0 -13.124,-31.17 34.042,-53.317 47.165,-22.147 104.584,-50.036 104.584,-50.036 v 211.727 c 0,0 -33.99,33.704 -47.434,47.215 -12.216,12.279 -25.248,2.729 -30.124,-8.9 z"/></g><g id="g21" transform="matrix(-0.65147,0,0,0.65147,311.234,-187.711)"><path style="fill:url(#_Linear3)" id="path19" d="m 259.879,588.352 c -4.857,-11.581 -61.068,-146.689 -61.068,-146.689 0,0 -13.124,-31.17 34.042,-53.317 47.165,-22.147 104.584,-50.036 104.584,-50.036 v 211.727 c 0,0 -33.99,33.704 -47.434,47.215 -12.216,12.279 -25.248,2.729 -30.124,-8.9 z"/></g><g id="g25" transform="matrix(-0.65147,0,0,0.65147,311.234,-187.711)"><path style="fill:url(#_Linear4)" id="path23" d="m 337.437,338.31 97.478,-47.288 c 0,0 20.767,-9.152 15.564,20.116 L 437.16,386.06 Z"/></g><g id="g29" transform="matrix(0.65147,0,0,0.65147,-128.427,-187.711)"><path style="fill:url(#_Linear5)" id="path27" d="m 337.437,338.31 97.478,-47.288 c 0,0 20.767,-9.152 15.564,20.116 L 437.16,386.06 Z"/></g></g></g></g></g></svg>