<svg xmlns="http://www.w3.org/2000/svg" xmlns:svg="http://www.w3.org/2000/svg" id="svg6107" width="54mm" height="204.118" version="1.1" viewBox="0 0 54 54.006"><defs id="defs6101"><clipPath id="_clip1"><rect id="rect4" width="804" height="204.118" x="0" y="-.001"/></clipPath><linearGradient id="_Linear2" x1="0" x2="1" y1="0" y2="0" gradientTransform="matrix(-70.1494,387.159,-387.159,-70.1494,-130642,-23458.8)" gradientUnits="userSpaceOnUse"><stop style="stop-color:red;stop-opacity:1" id="stop1421" offset="0"/><stop style="stop-color:#900;stop-opacity:1" id="stop1423" offset="1"/></linearGradient><linearGradient id="_Linear3" x1="0" x2="1" y1="0" y2="0" gradientTransform="matrix(163.535,-313.319,313.319,163.535,106277,55928.2)" gradientUnits="userSpaceOnUse"><stop style="stop-color:red;stop-opacity:1" id="stop1426" offset="0"/><stop style="stop-color:#900;stop-opacity:1" id="stop1428" offset="1"/></linearGradient><linearGradient id="_Linear4" x1="0" x2="1" y1="0" y2="0" gradientTransform="matrix(-196.382,337.595,-337.595,-196.382,98241.5,57154.7)" gradientUnits="userSpaceOnUse"><stop style="stop-color:#900;stop-opacity:.65" id="stop1431" offset="0"/><stop style="stop-color:#fe0000;stop-opacity:.65" id="stop1433" offset="1"/></linearGradient><linearGradient id="_Linear5" x1="0" x2="1" y1="0" y2="0" gradientTransform="matrix(-70.1494,387.159,-387.159,-70.1494,-111810,-20046.5)" gradientUnits="userSpaceOnUse"><stop style="stop-color:red;stop-opacity:.65" id="stop1436" offset="0"/><stop style="stop-color:#900;stop-opacity:.65" id="stop1438" offset="1"/></linearGradient><clipPath id="clipPath6084"><rect id="rect6082" width="804" height="204.118" x="0" y="-.001"/></clipPath></defs><metadata id="metadata6104"/><g id="layer1" transform="translate(1.2851214,0.63406363)"><rect id="rect2" width="212.725" height="54.006" x="-1.285" y="-.634" style="clip-rule:evenodd;fill:none;fill-rule:evenodd;stroke-width:.26458332;stroke-linejoin:round;stroke-miterlimit:2"/><g style="clip-rule:evenodd;fill-rule:evenodd;stroke-linejoin:round;stroke-miterlimit:2" id="g33" clip-path="url(#_clip1)" transform="matrix(0.26458333,0,0,0.26458333,-1.2851214,-0.63379905)"><g id="g6757" transform="translate(12)"><g id="g17" transform="matrix(0.65147,0,0,0.65147,-128.427,-187.711)"><path id="path15" d="m 259.879,588.352 c -4.857,-11.581 -61.068,-146.689 -61.068,-146.689 0,0 -13.124,-31.17 34.042,-53.317 47.165,-22.147 104.584,-50.036 104.584,-50.036 v 211.727 c 0,0 -33.99,33.704 -47.434,47.215 -12.216,12.279 -25.248,2.729 -30.124,-8.9 z" style="fill:url(#_Linear2)"/></g><g id="g21" transform="matrix(-0.65147,0,0,0.65147,311.234,-187.711)"><path id="path19" d="m 259.879,588.352 c -4.857,-11.581 -61.068,-146.689 -61.068,-146.689 0,0 -13.124,-31.17 34.042,-53.317 47.165,-22.147 104.584,-50.036 104.584,-50.036 v 211.727 c 0,0 -33.99,33.704 -47.434,47.215 -12.216,12.279 -25.248,2.729 -30.124,-8.9 z" style="fill:url(#_Linear3)"/></g><g id="g25" transform="matrix(-0.65147,0,0,0.65147,311.234,-187.711)"><path id="path23" d="m 337.437,338.31 97.478,-47.288 c 0,0 20.767,-9.152 15.564,20.116 L 437.16,386.06 Z" style="fill:url(#_Linear4)"/></g><g id="g29" transform="matrix(0.65147,0,0,0.65147,-128.427,-187.711)"><path id="path27" d="m 337.437,338.31 97.478,-47.288 c 0,0 20.767,-9.152 15.564,20.116 L 437.16,386.06 Z" style="fill:url(#_Linear5)"/></g></g></g></g></svg>